<?xml version="1.0" encoding="utf-8"?>
<!-- Generator: Adobe Illustrator 21.0.0, SVG Export Plug-In . SVG Version: 6.00 Build 0)  -->
<svg version="1.1" id="Layer_1" xmlns="http://www.w3.org/2000/svg" xmlns:xlink="http://www.w3.org/1999/xlink" x="0px" y="0px"
	 width="257.6px" height="169.6px" viewBox="0 0 257.6 169.6" style="enable-background:new 0 0 257.6 169.6;" xml:space="preserve"
	>
<path d="M148.7,142.6c-4.9,0-9.7-1-14.3-3.1c0,0-0.1,0-0.1-0.1c-3.2-1.8-8.7-1.8-11.9,0c0,0-0.1,0-0.1,0.1c-9.1,4.1-19.5,4.1-28.5,0
	c0,0-0.1-0.1-0.2-0.1c-3.2-1.7-8.6-1.7-11.9,0c0,0-0.1,0-0.1,0.1c-9.1,4.1-19.4,4.1-28.5,0l-6.6-3c-0.8-0.3-1.1-1.2-0.7-2
	c0.3-0.8,1.2-1.1,2-0.7l6.6,3c8.3,3.8,17.7,3.8,26,0c4.1-2.2,10.5-2.2,14.7,0c8.3,3.8,17.7,3.8,26,0c4.1-2.2,10.6-2.2,14.7,0
	c8.2,3.7,17.7,3.7,25.9,0c4.1-2.2,10.6-2.2,14.7,0c8.2,3.7,17.7,3.7,25.9,0l6.6-3c0.8-0.3,1.6,0,2,0.7c0.3,0.8,0,1.6-0.7,2l-6.6,3
	c-9.1,4.1-19.5,4.1-28.5,0c0,0-0.1,0-0.1-0.1c-3.2-1.8-8.7-1.8-11.9,0c0,0-0.1,0-0.1,0.1C158.5,141.6,153.6,142.6,148.7,142.6z
	 M122.8,149.6c0,0,0.1,0,0.1-0.1c3.2-1.8,8.7-1.8,11.9-0.1c0,0,0.1,0,0.1,0.1c9.1,4.1,19.5,4,28.5-0.2c0,0,0.1,0,0.1-0.1
	c1.5-0.8,3.5-1.3,5.7-1.3c0.8,0,1.5-0.7,1.5-1.5c0-0.8-0.7-1.5-1.5-1.5c0,0,0,0,0,0c-2.6,0.1-5.1,0.7-7,1.7
	c-8.2,3.8-17.7,3.9-25.9,0.2c-4.1-2.2-10.6-2.2-14.7,0.1c-8.2,3.8-17.7,3.9-25.9,0.2c-2.2-1.1-5.1-1.7-8.1-1.6
	c-0.8,0-1.5,0.7-1.4,1.6c0,0.8,0.7,1.5,1.6,1.4c2.4-0.1,4.8,0.3,6.5,1.2c0,0,0.1,0.1,0.1,0.1c4.5,2,9.3,3,14.1,3
	C113.3,152.8,118.2,151.7,122.8,149.6z M122.3,159.8c0,0,0.1,0,0.1-0.1c3.2-1.8,8.7-1.8,11.9-0.1c0,0,0.1,0,0.1,0.1
	c9.1,4.1,19.5,4,28.6-0.2l0,0c0.7-0.4,1-1.3,0.6-2c-0.4-0.7-1.2-1-2-0.7c-8.2,3.8-17.7,3.9-25.9,0.2c-4.2-2.2-10.7-2.2-14.7,0.1
	c-8.2,3.8-17.7,3.9-26,0.2c-0.7-0.4-1.6-0.1-2,0.6c-0.4,0.7-0.1,1.6,0.6,2c0,0,0.1,0.1,0.1,0.1c4.5,2,9.3,3,14.1,3
	C112.8,163,117.8,161.9,122.3,159.8z M194.2,102.4c0.9-4.3,1.3-8.8,1.3-13.2c0-36.5-29.7-66.2-66.2-66.2c-29,0-55.1,19.4-63.4,47.2
	c-0.2,0.8,0.2,1.6,1,1.9c0.8,0.2,1.6-0.2,1.9-1C76.7,44.6,101.6,26,129.3,26c34.8,0,63.2,28.3,63.2,63.2c0,4.2-0.4,8.5-1.3,12.6
	c-0.2,0.8,0.4,1.6,1.2,1.8c0.1,0,0.2,0,0.3,0C193.4,103.6,194,103.1,194.2,102.4z M157.3,21.7l2.9-7.5c0.3-0.8-0.1-1.6-0.8-1.9
	c-0.8-0.3-1.6,0.1-1.9,0.8l-2.9,7.5c-0.3,0.8,0.1,1.6,0.8,1.9c0.2,0.1,0.4,0.1,0.5,0.1C156.5,22.7,157.1,22.3,157.3,21.7z
	 M62.7,63.2c0.3-0.8-0.1-1.6-0.8-1.9l-7.5-2.9c-0.8-0.3-1.6,0.1-1.9,0.8c-0.3,0.8,0.1,1.6,0.8,1.9l7.5,2.9c0.2,0.1,0.4,0.1,0.5,0.1
	C61.9,64.1,62.4,63.7,62.7,63.2z M157.3,21.7l2.9-7.5c0.3-0.8-0.1-1.6-0.8-1.9c-0.8-0.3-1.6,0.1-1.9,0.8l-2.9,7.5
	c-0.3,0.8,0.1,1.6,0.8,1.9c0.2,0.1,0.4,0.1,0.5,0.1C156.5,22.7,157.1,22.3,157.3,21.7z M62.7,63.2c0.3-0.8-0.1-1.6-0.8-1.9l-7.5-2.9
	c-0.8-0.3-1.6,0.1-1.9,0.8c-0.3,0.8,0.1,1.6,0.8,1.9l7.5,2.9c0.2,0.1,0.4,0.1,0.5,0.1C61.9,64.1,62.4,63.7,62.7,63.2z M196.9,61.3
	l7.4-3.2c0.8-0.3,1.1-1.2,0.8-2c-0.3-0.8-1.2-1.1-2-0.8l-7.4,3.2c-0.8,0.3-1.1,1.2-0.8,2c0.2,0.6,0.8,0.9,1.4,0.9
	C196.5,61.4,196.7,61.4,196.9,61.3z M100.6,23.7c0.8-0.3,1.1-1.2,0.8-2l-3.2-7.4c-0.3-0.8-1.2-1.1-2-0.8c-0.8,0.3-1.1,1.2-0.8,2
	l3.2,7.4c0.2,0.6,0.8,0.9,1.4,0.9C100.2,23.8,100.4,23.7,100.6,23.7z M128.2,17.7c0.8,0,1.5-0.7,1.5-1.5l-0.1-8.1
	c0-0.8-0.7-1.5-1.5-1.5c-0.8,0-1.5,0.7-1.5,1.5l0.1,8.1C126.7,17,127.4,17.7,128.2,17.7C128.2,17.7,128.2,17.7,128.2,17.7z
	 M202.4,89.6l8.1-0.1c0.8,0,1.5-0.7,1.5-1.5c0-0.8-0.7-1.5-1.5-1.5c0,0,0,0,0,0l-8.1,0.1c-0.8,0-1.5,0.7-1.5,1.5
	C200.9,89,201.6,89.6,202.4,89.6C202.4,89.6,202.4,89.6,202.4,89.6z M128.2,17.7c0.8,0,1.5-0.7,1.5-1.5l-0.1-8.1
	c0-0.8-0.7-1.5-1.5-1.5c-0.8,0-1.5,0.7-1.5,1.5l0.1,8.1C126.7,17,127.4,17.7,128.2,17.7C128.2,17.7,128.2,17.7,128.2,17.7z
	 M202.4,89.6l8.1-0.1c0.8,0,1.5-0.7,1.5-1.5c0-0.8-0.7-1.5-1.5-1.5c0,0,0,0,0,0l-8.1,0.1c-0.8,0-1.5,0.7-1.5,1.5
	C200.9,89,201.6,89.6,202.4,89.6C202.4,89.6,202.4,89.6,202.4,89.6z M181.3,37.8l5.6-5.8c0.6-0.6,0.6-1.5,0-2.1
	c-0.6-0.6-1.5-0.6-2.1,0l-5.6,5.8c-0.6,0.6-0.6,1.5,0,2.1c0.3,0.3,0.7,0.4,1,0.4C180.6,38.3,181,38.1,181.3,37.8z M77.9,39.4
	c0.6-0.6,0.6-1.5,0-2.1l-5.8-5.6c-0.6-0.6-1.5-0.6-2.1,0s-0.6,1.5,0,2.1l5.8,5.6c0.3,0.3,0.7,0.4,1,0.4
	C77.2,39.9,77.6,39.7,77.9,39.4z M54.3,101.7L54.3,101.7l-2.7,0c-0.2,0-0.4,0.1-0.6,0.2c-0.1,0.1-0.2,0.3-0.2,0.6l0,17l-13-17.5
	c-0.1-0.2-0.4-0.3-0.6-0.3l-2.9,0c-0.2,0-0.4,0.1-0.6,0.2c-0.1,0.1-0.2,0.3-0.2,0.6l0,24.1c0,0.4,0.3,0.8,0.8,0.8l0,0l2.8,0
	c0.2,0,0.4-0.1,0.6-0.2c0.1-0.1,0.2-0.3,0.2-0.6l0-17l13,17.4c0.1,0.2,0.4,0.3,0.6,0.3l2.8,0c0.4,0,0.8-0.4,0.8-0.8l0-24.1
	C55.1,102,54.8,101.7,54.3,101.7z M71.5,107.4c-0.1,0-0.1,0-0.2,0c-2.8,0-5.3,1.1-7.1,2.9c-1.8,1.8-2.7,4.4-2.7,7.2
	c0,2.8,1.1,5.4,2.9,7.1c1.8,1.7,4.3,2.7,7,2.7c0.1,0,0.1,0,0.2,0c5.9-0.1,9.9-4.3,9.8-10.1C81.3,111.4,77.3,107.4,71.5,107.4z
	 M75.7,121.6c-1,1.1-2.4,1.7-4.1,1.7c0,0-0.1,0-0.1,0c-3.3,0-5.6-2.4-5.7-5.9c-0.1-3.5,2.2-6,5.6-6c0,0,0.1,0,0.1,0
	c1.6,0,3,0.5,4,1.6c1.1,1.1,1.7,2.5,1.7,4.3C77.2,119,76.7,120.5,75.7,121.6z M119.3,115.3l0,11.2c0,0.4-0.4,0.8-0.8,0.8l-2.7,0
	c-0.2,0-0.4-0.1-0.6-0.2c-0.1-0.1-0.2-0.3-0.2-0.6l0-10.5c0-1.4-0.4-2.5-1.1-3.2c-0.7-0.7-1.8-1.1-3.1-1.1c-3.2,0.1-5.1,2.3-5.1,5.9
	l0,8.9c0,0.2-0.1,0.4-0.2,0.6c-0.1,0.1-0.3,0.2-0.6,0.2l-2.7,0l0,0c-0.4,0-0.8-0.4-0.8-0.8l0-10.5c0-1.4-0.4-2.5-1.1-3.2
	c-0.7-0.7-1.8-1.1-3.1-1.1c-3.2,0.1-5.2,2.4-5.2,5.9l0,8.9c0,0.4-0.4,0.8-0.8,0.8l-2.6,0l0,0c-0.2,0-0.4-0.1-0.5-0.2
	c-0.1-0.1-0.2-0.3-0.2-0.6l0-18.1c0-0.4,0.4-0.8,0.8-0.8l2.6,0c0.5,0,0.8,0.4,0.8,0.8l0,1.5c1.4-1.5,3.5-2.3,6.1-2.4
	c3.1,0,5.4,1.3,6.6,3.5c1.4-2.3,3.8-3.5,7.1-3.6c2.3,0,4.2,0.7,5.5,2.1C118.6,111,119.3,113,119.3,115.3z M167.6,100.3
	c-0.1-0.1-0.3-0.2-0.6-0.2l-2.7,0c-0.4,0-0.8,0.4-0.8,0.8l0,8.9c-1.6-1.6-3.7-2.4-6.3-2.4c-5.6,0-9.5,4.1-9.5,10
	c0,5.8,3.8,9.9,9.3,10c0.1,0,0.1,0,0.2,0c2.5,0,4.7-0.8,6.3-2.4l0,1.6c0,0.2,0.1,0.4,0.2,0.6c0.1,0.1,0.3,0.2,0.6,0.2l2.7,0
	c0.4,0,0.8-0.4,0.8-0.8l0-25.7C167.8,100.7,167.7,100.5,167.6,100.3z M163.5,117.4c0,3.5-2.4,6-5.7,6c0,0-0.1,0-0.1,0
	c-3.3-0.1-5.7-2.5-5.7-6c0-1.7,0.6-3.3,1.6-4.3c1.1-1.1,2.5-1.7,4.2-1.7c0,0,0.1,0,0.1,0c1.6,0,3,0.6,4,1.7
	C163,114.1,163.5,115.7,163.5,117.4z M188.6,121.2c0,1.9-0.8,3.5-2.3,4.6c-1.3,0.9-3,1.4-5,1.5c-0.1,0-0.1,0-0.2,0
	c-2.8,0-5.5-1-7.3-2.6c-0.3-0.2-0.3-0.6-0.2-0.9l1-2c0.1-0.2,0.3-0.4,0.6-0.4c0.2,0,0.5,0,0.7,0.2c1.4,1.2,3.6,2,5.5,2
	c0.9,0,3.1-0.2,3.1-1.9c0-1.3-1.4-1.8-3.8-2.5c-2.8-0.8-6.4-1.8-6.4-5.9c-0.1-3.5,2.7-5.8,7-5.8c2.3-0.1,4.6,0.6,6.3,1.7
	c0.3,0.2,0.4,0.6,0.3,1l-1,2.2c-0.1,0.2-0.3,0.4-0.5,0.4c-0.2,0.1-0.4,0-0.6-0.1c-1.4-0.8-3-1.3-4.5-1.3c-0.9,0-1.6,0.2-2.1,0.5
	c-0.4,0.3-0.6,0.7-0.6,1.2c0,1.1,1.4,1.6,3.6,2.2C184.8,115.9,188.5,117,188.6,121.2z M197.2,122.9c0.5,0.5,0.7,1.1,0.7,1.8
	c0,1.4-1,2.6-2.4,2.6c0,0,0,0,0,0c-0.7,0-1.3-0.3-1.7-0.7c-0.5-0.5-0.7-1.1-0.7-1.8c0-1.5,1-2.6,2.4-2.6
	C196.1,122.2,196.7,122.4,197.2,122.9z M214.6,101.7l-9.1,0c-0.2,0-0.4,0.1-0.6,0.2c-0.1,0.1-0.2,0.3-0.2,0.6l0,12.9l-3.5-0.1
	c-0.4,0-0.7,0.3-0.7,0.6l-0.1,2.9c0,0.4,0.3,0.7,0.6,0.7l3.6,0.1l0,7c0,0.4,0.3,0.8,0.8,0.8l0,0l2.8,0c0.2,0,0.4-0.1,0.6-0.2
	c0.1-0.1,0.2-0.3,0.2-0.6l0-6.8l5.5,0c3.2,0,5.7-0.8,7.5-2.4c1.8-1.6,2.7-3.9,2.7-6.8C224.8,105,221,101.7,214.6,101.7z
	 M209.1,115.5l0-9.6l5.4,0c2,0,3.5,0.4,4.6,1.2c1,0.8,1.5,2,1.5,3.5c0,1.6-0.5,2.8-1.5,3.6c-1,0.8-2.6,1.3-4.6,1.3L209.1,115.5z
	 M247.6,105.1c0,0.4-0.4,0.8-0.8,0.8l-7.1,0v20.7c0,0.2-0.1,0.4-0.2,0.6c-0.1,0.1-0.3,0.2-0.6,0.2l-2.8,0l0,0
	c-0.4,0-0.8-0.4-0.8-0.8l0-20.7l-7.1,0c0,0,0,0,0,0c-0.4,0-0.8-0.4-0.8-0.8l0-2.6c0-0.2,0.1-0.4,0.2-0.6c0.1-0.1,0.3-0.2,0.6-0.2
	l18.5,0l0,0c0.4,0,0.8,0.4,0.8,0.8L247.6,105.1z M20.5,73.4l-9.7,0c-0.2,0-0.4,0.1-0.6,0.2C10.1,73.8,10,74,10,74.2l0,24.1
	c0,0.4,0.3,0.8,0.8,0.8c0,0,0,0,0,0l9.6,0c3.6,0,7-1.3,9.4-3.7c2.5-2.4,3.8-5.6,3.8-9.2C33.7,78.9,28,73.3,20.5,73.4z M29.3,86.2
	c0,4.9-3.8,8.6-8.8,8.6l-6.2,0l0-17.3l6.1,0c2.4,0,4.7,0.9,6.3,2.5C28.4,81.7,29.3,83.9,29.3,86.2z M43.8,79.6
	c0.1,0.1,0.2,0.3,0.2,0.6l0,18.1c0,0.4-0.4,0.8-0.8,0.8l-2.6,0c0,0,0,0,0,0c-0.2,0-0.4-0.1-0.5-0.2c-0.1-0.1-0.2-0.3-0.2-0.6l0-18.1
	c0-0.4,0.4-0.8,0.8-0.8l2.6,0C43.5,79.4,43.7,79.4,43.8,79.6z M39.4,74.9c0-1.5,1.1-2.6,2.5-2.6c0,0,0,0,0,0c1.4,0,2.5,1.2,2.5,2.6
	c0,1.5-1.1,2.6-2.5,2.6c0,0,0,0,0,0C40.4,77.5,39.4,76.4,39.4,74.9z M80.7,79.6c0.1,0.1,0.2,0.3,0.2,0.6l0,18.1
	c0,0.4-0.4,0.8-0.8,0.8l-2.6,0c0,0,0,0,0,0c-0.2,0-0.4-0.1-0.5-0.2c-0.1-0.1-0.2-0.3-0.2-0.6l0-18.1c0-0.4,0.4-0.8,0.8-0.8l2.6,0
	C80.4,79.4,80.6,79.4,80.7,79.6z M76.3,74.9c0-1.5,1.1-2.6,2.5-2.6c0,0,0,0,0,0c1.4,0,2.5,1.2,2.5,2.6c0,1.5-1.1,2.6-2.5,2.6
	c0,0,0,0,0,0C77.4,77.5,76.3,76.4,76.3,74.9z M87.8,93.1l0-17.3c0-0.2,0.1-0.4,0.2-0.6c0.1-0.1,0.3-0.2,0.6-0.2l2.6,0l0,0
	c0.4,0,0.8,0.4,0.8,0.8l0,4l5,0c0.2,0,0.4,0.1,0.6,0.2c0.1,0.1,0.2,0.3,0.2,0.6l0,2.2c0,0.4-0.4,0.8-0.8,0.8l-5,0l0,9.1
	c0,0.9,0.1,1.5,0.4,1.8c0.2,0.2,0.4,0.4,1.2,0.4c0.8,0,1.6-0.3,2.5-0.8c0.2-0.1,0.5-0.2,0.7-0.1c0.2,0.1,0.4,0.3,0.5,0.5l0.8,2.2
	c0.1,0.3,0,0.7-0.3,0.9c-1.4,1-2.9,1.5-4.5,1.5c0,0-0.1,0-0.1,0c-1.5,0-2.8-0.5-3.7-1.5C88.3,96.5,87.8,95,87.8,93.1z M126.6,98.3
	l0-25.5c0-0.2,0.1-0.4,0.2-0.6c0.1-0.1,0.3-0.2,0.6-0.2l2.7,0l0,0c0.4,0,0.8,0.4,0.8,0.8l0,25.5c0,0.2-0.1,0.4-0.2,0.6
	c-0.1,0.1-0.3,0.2-0.6,0.2l-2.7,0c0,0,0,0,0,0C126.9,99,126.6,98.7,126.6,98.3z M120.1,79.3l-2.7,0c-0.2,0-0.4,0.1-0.6,0.2
	s-0.2,0.4-0.2,0.6l0,1.4c-1.5-1.5-3.7-2.4-6.2-2.4c-5.6,0-9.5,4-9.6,9.9c0,5.8,3.7,9.9,9.2,10.1c0.1,0,0.1,0,0.2,0
	c2.5,0,4.7-0.8,6.3-2.4l0,1.6c0,0.2,0.1,0.4,0.2,0.6c0.1,0.1,0.4,0.2,0.6,0.3h2.7c0.2,0,0.4-0.1,0.6-0.2c0.1-0.1,0.2-0.3,0.2-0.6
	l0-18.2C120.9,79.6,120.5,79.3,120.1,79.3z M116.7,89.1c0,3.5-2.4,5.9-5.8,5.9c-3.4-0.1-5.8-2.5-5.7-6c0-1.7,0.6-3.3,1.7-4.3
	c1.1-1.1,2.5-1.7,4.2-1.6c0,0,0.1,0,0.1,0c1.6,0,3,0.6,4,1.7C116.1,85.9,116.7,87.4,116.7,89.1z M69.3,97.1l0-16.2
	c0-0.4-0.3-0.8-0.8-0.8c0,0,0,0,0,0l-2.8,0c-0.2,0-0.4,0.1-0.6,0.2C65,80.4,65,80.6,65,80.9l0,1.3c-1.5-1.4-3.6-2.2-6-2.2
	c-5.3,0.1-8.9,4-8.9,9.5c0,5.6,3.7,9.4,8.9,9.5c0.1,0,0.1,0,0.2,0c2.4,0,4.4-0.8,5.9-2.3l0,0.4c0,1.6-0.5,3-1.5,4
	c-1,1-2.5,1.5-4.2,1.5c-0.9,0-1.6-0.1-2.3-0.3c-0.2-0.1-0.5,0-0.7,0.1c-0.2,0.1-0.3,0.4-0.3,0.6l0,2.4c0,0.4,0.3,0.7,0.6,0.8
	c0.9,0.2,1.8,0.3,2.8,0.3c0,0,0,0,0.1,0C65.5,106.5,69.4,102.8,69.3,97.1z M59.7,95.2c0,0-0.1,0-0.1,0c-3.1,0-5.3-2.3-5.4-5.6
	c0-3.3,2.2-5.7,5.4-5.7c0,0,0.1,0,0.1,0c1.5,0,2.8,0.5,3.8,1.5c1,1,1.5,2.5,1.6,4.1c0,1.6-0.5,3-1.5,4.1
	C62.6,94.6,61.2,95.2,59.7,95.2z M142.6,107.5l-2.7,0c-0.2,0-0.4,0.1-0.6,0.2c-0.1,0.2-0.2,0.4-0.2,0.6l0,1.4
	c-1.5-1.5-3.7-2.4-6.2-2.4c-5.6,0-9.5,4-9.6,9.9c0,5.8,3.7,9.9,9.2,10.1c0.1,0,0.1,0,0.2,0c2.5,0,4.7-0.8,6.3-2.4l0,1.6
	c0,0.2,0.1,0.4,0.2,0.6c0.1,0.1,0.4,0.2,0.6,0.3h2.7c0.2,0,0.4-0.1,0.6-0.2c0.1-0.1,0.2-0.3,0.2-0.6l0-18.2
	C143.4,107.9,143,107.6,142.6,107.5z M139.2,117.4c0,3.5-2.4,5.9-5.8,5.9c-3.4-0.1-5.8-2.5-5.7-6c0-1.7,0.6-3.3,1.7-4.3
	c1.1-1.1,2.5-1.7,4.2-1.6c0,0,0.1,0,0.1,0c1.6,0,3,0.6,4,1.7C138.6,114.2,139.2,115.7,139.2,117.4z"/>
</svg>
